<?xml version="1.0" encoding="UTF-8"?>
<svg version="1.1" xmlns="http://www.w3.org/2000/svg" width="819" height="1278">
<path d="M0 0 C6.99290531 4.11491451 11.81083381 10.00469706 16.8125 16.2890625 C19.39353799 19.51640241 22.04969 22.66818736 24.73046875 25.8125 C28.08558699 29.75843848 31.40270407 33.72894168 34.66796875 37.75 C38.62555063 42.61379025 42.69589321 47.37131231 46.78881836 52.12084961 C50.56381266 56.5105035 54.23775336 60.97364771 57.88671875 65.46875 C60.62350011 68.78937805 63.42191891 72.0525918 66.23046875 75.3125 C91.26303916 104.43016445 91.26303916 104.43016445 90.0546875 120.67578125 C88.37124462 130.24929987 82.62047902 137.43893611 75.671875 143.9140625 C72.98186435 146.55672897 70.54639613 149.35296109 68.07983398 152.20263672 C65.13009897 155.56786576 62.05444745 158.81109107 58.98046875 162.0625 C53.62172491 167.75356904 48.31016996 173.48153448 43.0390625 179.25390625 C39.79490536 182.79712865 36.51222778 186.30413806 33.23046875 189.8125 C28.09796955 195.30054508 23.00072577 200.81845254 17.9296875 206.36328125 C10.71949756 214.2412746 3.46102615 222.07370177 -3.83203125 229.875 C-8.94061591 235.33998136 -14.01453822 240.83449152 -19.0625 246.35546875 C-23.44441004 251.146933 -27.8557258 255.91132411 -32.26220703 260.68017578 C-33.74363259 262.28445361 -35.22362117 263.89004366 -36.703125 265.49609375 C-42.05905126 271.30829858 -47.43430589 277.10157652 -52.83203125 282.875 C-57.94315145 288.34264521 -63.01918317 293.84022159 -68.0703125 299.36328125 C-74.10104493 305.95257645 -80.15696479 312.51876862 -86.25390625 319.046875 C-86.84292725 319.67762939 -87.43194824 320.30838379 -88.03881836 320.95825195 C-89.23046012 322.2319864 -90.42397276 323.50397322 -91.61938477 324.77416992 C-94.38696396 327.72183526 -97.11604546 330.68583206 -99.75 333.75390625 C-106.89912986 342.02191156 -113.73812867 347.44119585 -124.875 348.515625 C-133.59720152 348.71199727 -140.79619389 346.54250302 -147.78515625 341.30078125 C-154.04664634 335.0269654 -158.13884405 327.36871119 -162.315979 319.63171387 C-163.71240367 317.04555585 -165.12275103 314.46708119 -166.5324707 311.88815308 C-167.25007959 310.57529567 -167.96703999 309.2620836 -168.68334961 307.94851685 C-171.86379375 302.12091238 -175.11546755 296.33517725 -178.39453125 290.5625 C-184.63881526 279.55456521 -190.82590621 268.51524718 -197.00341797 257.46972656 C-199.92351261 252.24956291 -202.84662957 247.03109227 -205.76953125 241.8125 C-209.28276977 235.53991152 -212.79534874 229.26695881 -216.3046875 222.9921875 C-221.93887304 212.9204576 -227.58515088 202.85599892 -233.26953125 192.8125 C-242.45974081 176.56872065 -251.6155735 160.30613561 -260.58203125 143.9375 C-261.09193604 143.00993896 -261.60184082 142.08237793 -262.12719727 141.12670898 C-262.59311279 140.27278564 -263.05902832 139.4188623 -263.5390625 138.5390625 C-263.94745361 137.79221191 -264.35584473 137.04536133 -264.77661133 136.27587891 C-268.33787729 129.23390672 -267.99369922 118.79730228 -265.93359375 111.25 C-261.10500023 100.87986627 -252.97969932 95.29382493 -242.70703125 91.0625 C-241.5569458 90.56983643 -240.40686035 90.07717285 -239.22192383 89.56958008 C-236.57902286 88.43759381 -233.93108375 87.31852689 -231.27929688 86.20751953 C-226.32318322 84.129464 -221.38238047 82.01608935 -216.44140625 79.90234375 C-208.51668481 76.5155908 -200.58653563 73.14184821 -192.65234375 69.77734375 C-179.54070416 64.21715124 -166.43513155 58.64278393 -153.33203125 53.0625 C-152.21553192 52.58707764 -151.09903259 52.11165527 -149.94869995 51.62182617 C-132.29584429 44.10405302 -114.65443525 36.55978005 -97.01953125 29 C-95.27402481 28.25185028 -95.27402481 28.25185028 -93.49325562 27.48858643 C-82.38993865 22.72928784 -71.28775255 17.96740178 -60.19128418 13.19215393 C-56.25915996 11.50021565 -52.3263297 9.80992233 -48.39343262 8.11978149 C-45.72146251 6.97058755 -43.05065493 5.81872275 -40.37988281 4.66674805 C-38.7780552 3.97821232 -37.17617075 3.28980878 -35.57421875 2.6015625 C-34.50960922 2.14087624 -34.50960922 2.14087624 -33.42349243 1.67088318 C-22.41710555 -3.04684541 -11.31317348 -5.31516144 0 0 Z " fill="#001749" transform="translate(493.76953125,311.6875)"/>
<path d="M0 0 C1.01320313 0.21269531 1.01320313 0.21269531 2.046875 0.4296875 C13.31398489 3.71968359 22.03974819 15.54535646 27.91015625 25.11328125 C31.34227863 31.4310097 33.5495775 37.37747289 35.00097656 44.37792969 C35.25211905 45.54940615 35.25211905 45.54940615 35.50833511 46.7445488 C37.24525292 54.95089176 38.76717512 63.19497437 40.234375 71.453125 C40.44400753 72.62676731 40.44400753 72.62676731 40.65787506 73.82411957 C41.39483452 77.95035881 42.1274138 82.07734483 42.85595703 86.20507812 C43.60036999 90.41793885 44.35964005 94.62798045 45.12228012 98.83757401 C45.71552141 102.12732837 46.29786241 105.41894802 46.877388 108.71114349 C47.15246813 110.26330023 47.43144246 111.81477294 47.71471405 113.36545563 C51.34745107 133.30572827 51.45346478 152.30912541 40 170 C34.93386581 177.19892712 29.43550268 184.07926515 24 191 C3.63727395 217.06219255 -1.45163137 235.91326577 -1.43579102 268.79785156 C-1.4393756 272.24574293 -1.46674709 275.6928707 -1.49609375 279.140625 C-1.48791122 280.18252991 -1.4797287 281.22443481 -1.47129822 282.2979126 C-1.5695894 292.04457096 -4.19778792 300.04400916 -10.9296875 307.2421875 C-17.07001145 312.4556701 -24.30173086 315.02047293 -32.24023438 315.42529297 C-32.89919708 315.45968601 -33.55815979 315.49407906 -34.23709106 315.52951431 C-36.52242734 315.6469 -38.80804281 315.75727202 -41.09375 315.8671875 C-42.79138225 315.95147891 -44.48901407 316.035779 -46.18664551 316.12008667 C-72.84242377 317.42454319 -99.50948908 318.50677078 -126.17409801 319.61253381 C-126.98434587 319.64613496 -127.79459372 319.6797361 -128.62939453 319.71435547 C-129.44105985 319.74801264 -130.25272516 319.7816698 -131.0889864 319.81634688 C-137.70581174 320.09112147 -144.32241753 320.37093383 -150.93898916 320.6517421 C-157.42996122 320.92696906 -163.92108412 321.19843289 -170.4123292 321.46714294 C-174.24393412 321.6258251 -178.07546589 321.78590565 -181.90684509 321.94995499 C-191.26990798 322.34978229 -200.63286751 322.70691903 -210 323 C-211.144758 323.03831688 -212.28951599 323.07663376 -213.46896362 323.11611176 C-216.61674726 323.21171726 -219.76333217 323.27610444 -222.91210938 323.32763672 C-223.80054787 323.35648012 -224.68898636 323.38532352 -225.60434723 323.41504097 C-234.84097282 323.4852337 -242.57115305 320.25188499 -249.24609375 313.9140625 C-254.94968695 307.68965121 -258.07688786 300.99783086 -257.9675293 292.46704102 C-257.32624623 283.81846788 -255.55641868 275.56895426 -253.4375 267.1875 C-253.25882385 266.47900909 -253.08014771 265.77051819 -252.89605713 265.04055786 C-248.37628796 247.35316786 -241.6112542 235.71628531 -228.71337891 222.74169922 C-226.19633689 220.1830532 -223.78468815 217.5343008 -221.375 214.875 C-213.27565206 206.01892466 -205.1332698 197.20441913 -196.9375 188.4375 C-191.82640389 182.96983199 -186.75034836 177.47227871 -181.69921875 171.94921875 C-174.48902881 164.0712254 -167.2305574 156.23879823 -159.9375 148.4375 C-154.82891534 142.97251864 -149.75499303 137.47800848 -144.70703125 131.95703125 C-140.32512121 127.165567 -135.91380545 122.40117589 -131.50732422 117.63232422 C-130.02589866 116.02804639 -128.54591008 114.42245634 -127.06640625 112.81640625 C-121.71047999 107.00420142 -116.33522536 101.21092348 -110.9375 95.4375 C-105.8263798 89.96985479 -100.75034808 84.47227841 -95.69921875 78.94921875 C-88.48902881 71.0712254 -81.2305574 63.23879823 -73.9375 55.4375 C-68.82640389 49.96983199 -63.75034836 44.47227871 -58.69921875 38.94921875 C-54.87358441 34.76925649 -51.03515035 30.60139636 -47.18359375 26.4453125 C-44.91241512 23.99372314 -42.65839171 21.52732537 -40.41015625 19.0546875 C-39.19025861 17.72381675 -37.97020933 16.39308498 -36.75 15.0625 C-36.19594482 14.44785889 -35.64188965 13.83321777 -35.07104492 13.19995117 C-25.36582565 2.6671662 -14.6310802 -3.13523147 0 0 Z " fill="#001749" transform="translate(615,462)"/>
<path d="M0 0 C1.34543038 -0.00271958 2.69085926 -0.00628587 4.0362854 -0.01062012 C7.64348891 -0.01962811 11.25057623 -0.01624948 14.85778141 -0.00986195 C18.65671632 -0.00474531 22.45564227 -0.00950856 26.25457764 -0.01263428 C32.62579102 -0.01625583 38.99695778 -0.01152084 45.36816406 -0.00195312 C52.71074434 0.00894668 60.05321366 0.00538748 67.39579129 -0.00560594 C73.7316435 -0.01470834 80.06746249 -0.01595025 86.40331912 -0.0107286 C90.17387888 -0.00762749 93.94438661 -0.00714834 97.71494293 -0.01380157 C101.25768053 -0.01961831 104.8002761 -0.01549984 108.3429985 -0.00401306 C110.2470048 -0.00014878 112.15102325 -0.00601366 114.05502319 -0.01226807 C126.33919276 0.04773049 135.38844014 1.41516509 144.65527344 9.85644531 C150.74509777 16.31257487 153.11732439 23.53489844 153.40136719 32.32128906 C153.04395782 42.97439403 148.53685863 49.30068278 141.90136719 57.25878906 C140.81715078 58.5783765 139.73390314 59.89876021 138.65136719 61.21972656 C136.21161873 64.19310739 133.76606951 67.16156623 131.31542969 70.12597656 C128.66766844 73.32903018 126.02973053 76.53978228 123.40136719 79.75878906 C117.86433743 86.53423029 112.29647694 93.28426582 106.73193359 100.03710938 C103.78769131 103.61040956 100.84457079 107.18463334 97.90136719 110.75878906 C96.73470623 112.17546043 95.56803956 113.59212709 94.40136719 115.00878906 C93.82386719 115.71003906 93.24636719 116.41128906 92.65136719 117.13378906 C87.40136719 123.50878906 87.40136719 123.50878906 85.65014648 125.63525391 C84.48752599 127.04701895 83.32492821 128.4588027 82.16235352 129.87060547 C79.1839696 133.48742329 76.20515001 137.10388088 73.22558594 140.71972656 C65.80139411 149.72933469 65.80139411 149.72933469 58.40136719 158.75878906 C54.51317182 163.51508058 50.61579031 168.26375729 46.71386719 173.00878906 C46.13121094 173.71841797 45.54855469 174.42804688 44.94824219 175.15917969 C43.81516873 176.53616075 42.67914964 177.91072381 41.54003906 179.28271484 C40.47118219 180.57164922 39.40959901 181.86666053 38.35644531 183.16845703 C28.46322239 195.1673757 14.08480397 201.94632393 -1.09863281 204.25878906 C-5.03013049 204.54402544 -8.94681163 204.58625731 -12.88769531 204.59472656 C-13.9897934 204.60138336 -15.09189148 204.60804016 -16.22738647 204.61489868 C-18.54854682 204.62497044 -20.8697358 204.62971741 -23.19091797 204.62939453 C-26.69320917 204.63375122 -30.19422143 204.67008639 -33.69628906 204.70800781 C-55.73528972 204.81988041 -73.98245971 201.79470384 -90.55566406 185.91503906 C-93.81805341 182.50732054 -96.79733752 178.94450832 -99.71972656 175.24316406 C-102.43172562 171.84091894 -105.25350821 168.54959477 -108.09863281 165.25878906 C-133.90251697 135.26741465 -133.90251697 135.26741465 -133.38769531 118.99707031 C-132.51307366 107.68608486 -125.86188339 101.00048843 -118.58544922 92.93115234 C-116.51361076 90.60075933 -114.55460792 88.18677279 -112.59863281 85.75878906 C-108.66484711 80.91282117 -104.61415522 76.17780378 -100.54003906 71.45019531 C-97.50904997 67.92561003 -94.528707 64.36830074 -91.59863281 60.75878906 C-87.66484711 55.91282117 -83.61415522 51.17780378 -79.54003906 46.45019531 C-76.50904997 42.92561003 -73.528707 39.36830074 -70.59863281 35.75878906 C-69.88191406 34.88480469 -69.16519531 34.01082031 -68.42675781 33.11035156 C-67.19608745 31.60298685 -65.96750814 30.09378575 -64.75683594 28.5703125 C-52.17988161 12.77579715 -38.29047298 3.38431711 -17.85453033 0.64875031 C-11.8967423 0.03017474 -5.98519149 -0.01979064 0 0 Z " fill="#001749" transform="translate(516.0986328125,993.7412109375)"/>
<path d="M0 0 C4.92240111 4.4111386 7.7162137 9.64416417 10.76953125 15.4375 C11.98917366 17.68251428 13.20923769 19.92729954 14.4296875 22.171875 C15.35225342 23.88793945 15.35225342 23.88793945 16.29345703 25.63867188 C19.20409853 31.02232216 22.20693882 36.35335074 25.20703125 41.6875 C26.37514862 43.77335428 27.54311808 45.85929139 28.7109375 47.9453125 C32.00824601 53.82559018 35.32376592 59.69544483 38.64453125 65.5625 C44.92416964 76.65722704 51.15553823 87.77863393 57.37841797 98.90527344 C60.29851262 104.12543711 63.22166691 109.34388679 66.14453125 114.5625 C67.31121279 116.64582501 68.47787945 118.72915834 69.64453125 120.8125 C70.22203125 121.84375 70.79953125 122.875 71.39453125 123.9375 C73.14453125 127.0625 74.89453125 130.1875 76.64453125 133.3125 C77.5116272 134.86070435 77.5116272 134.86070435 78.39624023 136.44018555 C79.55762701 138.51433377 80.71860009 140.5887137 81.87915039 142.66333008 C84.87317212 148.01421342 87.87524149 153.36034035 90.890625 158.69921875 C111.75369715 195.68611753 111.75369715 195.68611753 108.08203125 210.125 C105.41655897 218.04668398 100.38643748 223.87118533 93.234375 228.08984375 C87.75981643 230.63781587 82.5398547 231.51851514 76.60180664 232.06811523 C75.76315063 232.15137054 74.92449463 232.23462585 74.0604248 232.32040405 C71.28828325 232.59392894 68.5152932 232.85753861 65.7421875 233.12109375 C63.78472581 233.31222584 61.82732419 233.50397406 59.86997986 233.69630432 C54.69902119 234.20272157 49.52728715 234.70074536 44.35534668 235.19702148 C39.21101799 235.69208658 34.06745123 236.19493168 28.92382812 236.69726562 C22.91942152 237.28341467 16.914851 237.86757397 10.90933228 238.44223022 C2.17257773 239.27866225 -6.56161559 240.12694941 -15.28955078 241.05126953 C-16.71624135 241.19960985 -18.14296255 241.34765591 -19.56971741 241.49537659 C-22.1055428 241.75983903 -24.64053352 242.03252444 -27.17430115 242.31602478 C-39.21212163 243.55547811 -50.62691101 243.74812386 -60.4387207 235.77612305 C-66.22916872 230.49350913 -69.68358282 223.92434049 -73.41796875 217.125 C-74.1190871 215.86968461 -74.82158474 214.61513869 -75.52539062 213.36132812 C-76.60036983 211.44601918 -77.67456905 209.53032668 -78.74453735 207.61221313 C-82.0350738 201.71518932 -85.4333843 195.88408462 -88.85546875 190.0625 C-94.28319096 180.79919778 -99.62876131 171.49077736 -104.93026733 162.15484619 C-108.43742167 155.97889263 -111.97372763 149.82604582 -115.65234375 143.75 C-116.54360962 142.27297607 -116.54360962 142.27297607 -117.45288086 140.76611328 C-118.55330435 138.95123691 -119.66273617 137.14177461 -120.78344727 135.33935547 C-126.80681392 125.39760962 -129.64164094 115.65784525 -126.85546875 104.1875 C-123.77060562 94.87524961 -116.65791034 87.66482976 -110.1328125 80.58203125 C-107.03157126 77.15098391 -104.14109949 73.56546607 -101.23046875 69.97265625 C-98.68057866 66.84820211 -96.08923331 63.76277196 -93.48046875 60.6875 C-93.0205957 60.14520752 -92.56072266 59.60291504 -92.08691406 59.04418945 C-90.20554892 56.82733383 -88.32246303 54.61194292 -86.43945312 52.39648438 C-81.72027265 46.84181966 -77.01471826 41.28190075 -72.41796875 35.625 C-68.96272589 31.37857452 -65.42845683 27.20956799 -61.85546875 23.0625 C-56.05153411 16.32511683 -50.23572257 9.5695051 -44.8984375 2.453125 C-40.22021507 -3.02120029 -33.27471867 -6.54412744 -26.203125 -7.75390625 C-16.28257267 -8.52972315 -7.72608155 -6.34378885 0 0 Z " fill="#001749" transform="translate(211.85546875,463.9375)"/>
<path d="M0 0 C7.22390821 5.50784467 11.54212349 12.71182217 15.80859375 20.59375 C16.94634617 22.65060909 18.08572115 24.70657134 19.2265625 26.76171875 C20.09740479 28.33638916 20.09740479 28.33638916 20.98583984 29.94287109 C23.79499403 34.97129605 26.70602503 39.93870977 29.62109375 44.90625 C35.76466822 55.39974193 41.85431406 65.92333264 47.921875 76.4609375 C50.21380733 80.44057085 52.51180081 84.41654314 54.81916809 88.38723755 C55.84398458 90.15102036 56.86759301 91.91549894 57.89086914 93.68017578 C59.17026446 95.88563817 60.45185016 98.08983202 61.73608398 100.29248047 C74.67402577 122.62342875 74.67402577 122.62342875 72.74609375 137.09375 C70.1873529 145.5317351 65.19951921 152.33502452 57.74609375 157.09375 C51.7006784 159.76302511 46.8021784 160.53424707 40.234375 160.53515625 C39.34429245 160.54836411 38.4542099 160.56157196 37.53715515 160.57518005 C34.71093637 160.61576732 31.885036 160.63763112 29.05859375 160.65625 C3.57604237 160.87412482 -17.44632515 162.97175645 -36.25390625 182.09375 C-40.07800713 186.29423877 -43.67305292 190.6860254 -47.25390625 195.09375 C-48.00414062 196.01285156 -48.754375 196.93195313 -49.52734375 197.87890625 C-50.97775668 199.65657841 -52.42696345 201.43523533 -53.875 203.21484375 C-57.13312442 207.1577628 -60.4733768 211.0275771 -63.81225586 214.90209961 C-66.84335914 218.42673919 -69.82375941 221.98414882 -72.75390625 225.59375 C-76.28238585 229.93352235 -79.87251706 234.21509094 -83.50390625 238.46875 C-83.99955078 239.05205078 -84.49519531 239.63535156 -85.00585938 240.23632812 C-92.33312633 248.78644986 -99.55051475 256.03496175 -111.25390625 257.09375 C-121.62388141 257.2138076 -129.64781696 254.24005737 -137.23828125 247.1875 C-140.29152132 244.01591729 -143.02987537 240.62705778 -145.76953125 237.18359375 C-148.52630824 233.75496073 -151.37773699 230.42207012 -154.25390625 227.09375 C-159.35246382 221.17229845 -164.37199113 215.1961439 -169.25390625 209.09375 C-169.84171875 208.36414062 -170.42953125 207.63453125 -171.03515625 206.8828125 C-177.02727882 199.21642039 -179.59562405 191.88573247 -179.25390625 182.09375 C-177.64620125 171.95191167 -173.01015034 165.55194152 -166.25390625 158.09375 C-164.84781554 156.3938493 -163.45208167 154.68533298 -162.06640625 152.96875 C-155.19995189 144.5764169 -148.29726521 136.21384084 -141.40136719 127.84570312 C-133.0639223 117.73099034 -133.0639223 117.73099034 -124.75390625 107.59375 C-119.21687649 100.81830878 -113.649016 94.06827324 -108.08447266 87.31542969 C-105.14023037 83.74212951 -102.19709527 80.16791772 -99.25390625 76.59375 C-95.69589819 72.2729546 -92.13759573 67.95240307 -88.578125 63.6328125 C-81.15393317 54.62320437 -81.15393317 54.62320437 -73.75390625 45.59375 C-69.44065147 40.31579314 -65.1121875 35.05041232 -60.77099609 29.79541016 C-57.66731528 26.03648005 -54.58045155 22.26576509 -51.5234375 18.46875 C-50.91266357 17.71480957 -50.30188965 16.96086914 -49.67260742 16.18408203 C-48.51738932 14.75731613 -47.3673819 13.32630741 -46.22387695 11.89013672 C-33.94678945 -3.21870019 -18.2592531 -9.54039349 0 0 Z " fill="#001749" transform="translate(746.25390625,1020.90625)"/>
<path d="M0 0 C6.26790334 5.94439865 10.41491375 12.83345516 10.92754555 21.62969303 C11.02583867 27.41037477 10.21798973 32.60202477 8.89208984 38.21459961 C8.58467865 39.56773003 8.58467865 39.56773003 8.27105713 40.94819641 C7.59600657 43.90545444 6.9062805 46.85903352 6.21484375 49.8125 C5.73560586 51.88309907 5.2567403 53.95378434 4.77822876 56.02455139 C3.77461639 60.35582563 2.76309334 64.68516352 1.74658203 69.01342773 C0.45032898 74.53784286 -0.8208692 80.0676846 -2.08547401 85.59941769 C-3.06692871 89.87555502 -4.06439238 94.14784127 -5.06632614 98.41922188 C-5.54145153 100.45552489 -6.01107814 102.4931196 -6.47490311 104.53202629 C-12.59066103 131.33447139 -12.59066103 131.33447139 -24.18359375 138.72265625 C-31.76216 142.94020719 -39.2255523 143.28793731 -47.71376038 143.23907661 C-49.95245112 143.22627599 -52.18993922 143.23788864 -54.42858887 143.25511169 C-58.37684422 143.28164588 -62.32479747 143.28741388 -66.27313232 143.28601074 C-72.59014367 143.2837714 -78.90678118 143.29823888 -85.22364807 143.3415966 C-87.41163474 143.3513259 -89.59901444 143.34277681 -91.7869873 143.332901 C-104.17524307 143.35230442 -113.5286283 145.12158369 -122.62109375 153.97265625 C-125.09905656 156.51611587 -127.43636491 159.15127676 -129.74609375 161.84765625 C-136.65937903 169.80794242 -143.48990156 173.80983674 -154.18359375 174.72265625 C-177.86133225 175.86393542 -199.2487691 173.09953063 -217.4609375 156.66796875 C-223.59522875 150.22999971 -227.83715901 142.41464469 -232.18359375 134.72265625 C-232.62590332 133.94486816 -233.06821289 133.16708008 -233.52392578 132.36572266 C-234.89652328 129.94682866 -236.26113735 127.52367808 -237.62109375 125.09765625 C-238.04632324 124.33976807 -238.47155273 123.58187988 -238.90966797 122.80102539 C-243.86250215 113.85968766 -245.59488847 105.990012 -244.18359375 95.72265625 C-241.7830026 87.86368673 -237.12954459 82.07636181 -231.53125 76.20703125 C-229.15834647 73.69593867 -226.9792326 71.09724406 -224.80859375 68.41015625 C-221.51935527 64.3500025 -218.18861508 60.33210353 -214.80859375 56.34765625 C-214.3487207 55.80536377 -213.88884766 55.26307129 -213.41503906 54.7043457 C-211.53367392 52.48749008 -209.65058803 50.27209917 -207.76757812 48.05664062 C-206.36378581 46.40432077 -204.96097512 44.75117373 -203.55859375 43.09765625 C-203.10202393 42.56003662 -202.6454541 42.02241699 -202.17504883 41.46850586 C-199.22949258 37.98988891 -196.35270785 34.46254942 -193.49609375 30.91015625 C-180.07374014 14.57607514 -165.41206888 6.66603035 -144.51171875 4.44140625 C-143.37594391 4.31799362 -142.24016907 4.19458099 -141.06997681 4.06742859 C-121.60566567 1.9848258 -102.11820909 0.11687025 -82.63476562 -1.77612305 C-76.6935678 -2.35355817 -70.75295051 -2.93676048 -64.81244469 -3.52126598 C-60.19554914 -3.97459371 -55.57827888 -4.42400975 -50.96089554 -4.87233925 C-48.76881783 -5.08582076 -46.57687668 -5.30070972 -44.38508224 -5.51708031 C-41.33441694 -5.81783237 -38.28326435 -6.11306922 -35.23193359 -6.40698242 C-34.34358322 -6.49577667 -33.45523285 -6.58457092 -32.53996277 -6.67605591 C-20.53844611 -7.81627229 -9.78930421 -8.04898346 0 0 Z " fill="#001749" transform="translate(324.18359375,723.27734375)"/>
<path d="M0 0 C7.11071776 8.47816348 8.29916913 16.20823438 8.29052734 26.99707031 C8.29724457 28.20107986 8.30396179 29.40508942 8.31088257 30.64558411 C8.3265947 33.93715715 8.33323587 37.2285785 8.33451414 40.52018452 C8.3359395 42.58101026 8.34021641 44.64180986 8.34550858 46.70262909 C8.36399416 53.90479704 8.37218129 61.10689114 8.37060547 68.30908203 C8.36940538 75.00175788 8.39048509 81.69411055 8.4220928 88.38670468 C8.44832886 94.14915763 8.45896967 99.91150552 8.45769465 105.67401767 C8.45718704 109.10832773 8.46275751 112.54235056 8.48405075 115.97660065 C8.50371921 119.81312093 8.49786785 123.64881706 8.48583984 127.48535156 C8.49707886 128.60881485 8.50831787 129.73227814 8.51989746 130.88978577 C8.43925635 141.04896845 5.81050662 148.89096741 -1.20703125 156.3125 C-9.41092491 164.03381168 -18.91395186 165.15243269 -29.78027344 165.14526367 C-30.89647064 165.15030159 -30.89647064 165.15030159 -32.03521729 165.15544128 C-34.47662054 165.16488019 -36.91795467 165.16689094 -39.359375 165.16796875 C-41.07179797 165.17118666 -42.78422066 165.17455113 -44.49664307 165.17805481 C-48.08077633 165.18402875 -51.66488555 165.18589654 -55.24902344 165.18530273 C-59.81588951 165.18520131 -64.38259941 165.19884081 -68.94942856 165.21607494 C-72.48586723 165.22725738 -76.02226892 165.22922002 -79.55872345 165.22869301 C-81.24103584 165.22986422 -82.92334946 165.23423709 -84.60564423 165.24202538 C-112.4946338 165.35903732 -112.4946338 165.35903732 -122.81640625 155.21484375 C-129.1873138 147.43882375 -131.42565057 136.98889126 -134.00854492 127.46728516 C-134.28062271 126.47884613 -134.5527005 125.4904071 -134.83302307 124.47201538 C-135.71992132 121.24555748 -136.60031813 118.01736698 -137.48046875 114.7890625 C-138.09977376 112.52980127 -138.7194339 110.27063736 -139.33943176 108.01156616 C-140.6323218 103.29704492 -141.92221665 98.58171863 -143.2097168 93.86572266 C-144.85975677 87.82200838 -146.51532777 81.77982723 -148.17287731 75.73816872 C-149.45000868 71.0820643 -150.72523552 66.42544013 -151.99978065 61.76862717 C-152.60984199 59.53979168 -153.22026106 57.31105407 -153.83104515 55.08241653 C-154.68236306 51.97421187 -155.53135775 48.86538234 -156.37963867 45.75634766 C-156.6315799 44.8378302 -156.88352112 43.91931274 -157.14309692 42.97296143 C-160.61216369 30.23020645 -161.36908518 20.73146689 -154.75 8.734375 C-150.17255678 1.92022656 -143.6965946 -2.36441534 -135.671875 -4.00976562 C-126.28110611 -5.64868096 -116.70522118 -5.70845421 -107.19921875 -6.0703125 C-105.07369103 -6.156541 -102.94818776 -6.24337419 -100.82270813 -6.33078003 C-96.38075884 -6.51186774 -91.93864948 -6.68789605 -87.49633789 -6.85986328 C-81.83778256 -7.07899978 -76.17964703 -7.30730803 -70.52159405 -7.53901863 C-66.13503203 -7.71821805 -61.74834708 -7.89423345 -57.36161232 -8.06914902 C-55.27705457 -8.15231231 -53.19251892 -8.23603183 -51.10800743 -8.32034683 C-11.41674449 -9.91454127 -11.41674449 -9.91454127 0 0 Z " fill="#001749" transform="translate(605,808)"/>
<path d="M0 0 C12.62970766 -1.49759379 12.62970766 -1.49759379 17.578125 1.62890625 C20.00031369 4.27985721 21.98763242 7.02381426 24 10 C24.92631583 11.29798576 25.85621944 12.59341605 26.7890625 13.88671875 C28.84251918 16.75370793 30.86901752 19.63747369 32.87890625 22.53515625 C46.55331656 42.18594933 58.25481366 56.01441662 82 63 C98.1103676 67.74129353 113.27718331 72.24342058 121.95996094 87.92089844 C126.73309331 97.15721952 129.90727901 107.02086203 133.27124023 116.83300781 C135.52394241 123.28426495 137.8687343 129.26629543 141.5 135.0625 C145.44876998 141.44621131 147.6053823 147.04620098 146.6796875 154.62109375 C144.97352578 161.71570292 141.12175135 167.27915824 135.01171875 171.3125 C119.87118295 179.30905483 101.2168604 176.72852233 85.390625 171.8984375 C64.44521751 164.2774559 53.47612229 149.69113718 42.24731445 131.20336914 C26.4520209 105.27308648 8.69745683 94.08269677 -20 85 C-20 81.04 -20 77.08 -20 73 C-2.59183462 77.28002175 13.55578968 83.13831894 28 94 C28.66128906 94.48984375 29.32257813 94.9796875 30.00390625 95.484375 C40.28847574 103.67521781 46.67120498 115.64205241 53.51708984 126.62548828 C64.75737896 144.62401511 75.30451576 157.44827963 96.83984375 162.69140625 C106.99384014 164.64042838 118.83141679 166.26068025 128.26171875 161.19921875 C131.81010177 158.75123316 133.5727355 156.41058616 134.81640625 152.3046875 C135.05715872 147.97114301 133.48246166 145.17553769 131.4375 141.5 C130.68586242 140.07185579 129.93720698 138.64213846 129.19140625 137.2109375 C128.81773926 136.5003418 128.44407227 135.78974609 128.05908203 135.05761719 C123.48908424 126.17888474 120.24687157 116.89562616 117.18579102 107.42407227 C114.12915258 97.63739615 114.12915258 97.63739615 108.35546875 89.37109375 C107 88 107 88 107 86 C106.15695313 85.58814453 106.15695313 85.58814453 105.296875 85.16796875 C103.78553084 84.3994451 102.29420767 83.58998036 100.828125 82.73828125 C93.79025898 78.84612808 86.72590549 76.64246805 79 74.5 C65.72098958 70.78244465 55.43693801 66.27727823 45 57 C44.35933594 56.4534375 43.71867187 55.906875 43.05859375 55.34375 C34.89067937 47.84086414 28.93104561 38.03305634 22.59912109 29.00195312 C13.38721372 14.9998248 13.38721372 14.9998248 1.7109375 3.29296875 C1.14632812 2.86628906 0.58171875 2.43960938 0 2 C0 1.34 0 0.68 0 0 Z " fill="#0068FF" transform="translate(114,47)"/>
<path d="M0 0 C11.18368449 5.24041928 23.54770219 7.45793709 35.50488281 3.34765625 C39.21186597 1.78916483 42.81202052 0.01411536 46.43774414 -1.72387695 C47.0786499 -2.030271 47.71955566 -2.33666504 48.37988281 -2.65234375 C49.33640747 -3.11096802 49.33640747 -3.11096802 50.31225586 -3.57885742 C71.57403339 -13.544384 99.06409702 -12.45421194 120.88769531 -4.76953125 C129.85519479 -1.16282267 140.44090074 3.63033373 145.94238281 11.91015625 C144.5606371 12.80723734 143.16121542 13.67713277 141.75488281 14.53515625 C140.97757812 15.02242188 140.20027344 15.5096875 139.39941406 16.01171875 C136.94238281 16.91015625 136.94238281 16.91015625 134.46972656 16.265625 C131.78645459 14.82652859 129.2519213 13.24673034 126.69238281 11.59765625 C108.78309722 0.9542967 85.0636475 -0.96987335 64.97363281 3.5859375 C58.63560462 5.47981628 52.64336395 8.45197992 46.7043457 11.32958984 C38.47330099 15.30905879 31.30770921 17.26252517 22.12988281 17.22265625 C21.39962891 17.23876953 20.669375 17.25488281 19.91699219 17.27148438 C9.30127368 17.28072347 0.16802119 13.30696855 -9.30761719 8.91015625 C-30.91360589 -0.68140007 -55.36966853 -2.91742689 -78.05761719 4.91015625 C-84.89936951 7.70348913 -90.56631282 10.99688392 -96.05761719 15.91015625 C-96.71761719 15.91015625 -97.37761719 15.91015625 -98.05761719 15.91015625 C-98.45400391 16.75900391 -98.45400391 16.75900391 -98.85839844 17.625 C-100.14513349 20.07692184 -101.62745061 22.22569146 -103.24511719 24.47265625 C-105.78885364 28.04437692 -108.15352362 31.66479269 -110.43261719 35.41015625 C-121.92668086 53.53442591 -140.59286387 64.41820268 -161.05761719 69.91015625 C-161.88777344 70.13445312 -162.71792969 70.35875 -163.57324219 70.58984375 C-183.52273347 75.05706112 -204.72349234 71.63682217 -222.05761719 60.91015625 C-227.04896751 57.25631758 -231.74511313 53.34908551 -236.05761719 48.91015625 C-234.74537171 44.97341981 -233.13851392 42.68296331 -230.05761719 39.91015625 C-227.00917044 41.2799429 -224.85535055 42.87144643 -222.43261719 45.16015625 C-208.57582276 57.45742216 -192.52703811 60.77121697 -174.52929688 60.08056641 C-156.73904246 58.85401587 -137.82753158 49.29586722 -125.55761719 36.53515625 C-122.0936264 32.36844657 -119.49532511 27.68498257 -116.74511719 23.03515625 C-110.13470163 11.91717667 -102.75123109 3.8730067 -91.05761719 -2.08984375 C-90.18234375 -2.54101562 -89.30707031 -2.9921875 -88.40527344 -3.45703125 C-60.37631313 -17.04926738 -27.24427457 -12.94325108 0 0 Z " fill="#0068FF" transform="translate(249.0576171875,298.08984375)"/>
<path d="M0 0 C1.57152832 0.01027222 1.57152832 0.01027222 3.17480469 0.02075195 C11.75266347 0.19719943 19.15718255 1.46263119 27.25 4.4375 C28.24386719 4.788125 29.23773438 5.13875 30.26171875 5.5 C48.76402826 12.61437268 64.62734639 24.60479816 80.05566406 36.78198242 C106.29285115 57.48165848 131.02487875 68.78795484 164.25 73.4375 C164.25 74.0975 164.25 74.7575 164.25 75.4375 C154.95711954 80.96897647 143.78995318 77.84848938 133.875 75.375 C125.3402159 73.09712089 117.69898209 69.70283385 109.99902344 65.41210938 C108.43110017 64.53841456 106.84544706 63.69671751 105.2578125 62.859375 C93.45405752 56.38529332 82.87274805 47.7528843 72.21484375 39.58203125 C56.87471507 27.85800281 41.40902274 17.27635942 23.25 10.4375 C22.29609375 10.07785156 21.3421875 9.71820313 20.359375 9.34765625 C5.43946049 4.72248275 -12.80020158 5.8287038 -26.625 12.91015625 C-32.67936709 16.46709691 -37.30750928 20.83821488 -42.15234375 25.875 C-53.34829042 36.91942258 -64.71642141 42.61127377 -80.38989258 42.62695312 C-85.6212869 42.57206309 -90.74745479 42.06838869 -95.9375 41.4375 C-116.53660091 38.97038575 -133.3076594 42.69001372 -149.8125 55.625 C-157.67328567 61.95358003 -164.96797774 68.91257572 -172.29296875 75.84375 C-187.02827182 89.4973424 -204.21592796 101.85058157 -225 101.8125 C-226.24136719 101.8122583 -226.24136719 101.8122583 -227.5078125 101.81201172 C-235.64600981 101.66148042 -242.9123864 99.99590906 -249.75 95.4375 C-249.09 93.7875 -248.43 92.1375 -247.75 90.4375 C-245.40735797 90.81534549 -243.2037812 91.24579019 -241.01171875 92.171875 C-230.67623649 96.42648129 -217.88156508 95.78347352 -207.578125 91.7578125 C-191.81389434 84.39826835 -179.52668437 72.70703648 -167.0390625 60.8671875 C-150.5406036 45.43314531 -131.57685664 32.60441375 -108.06640625 33.19921875 C-104.00624168 33.49093847 -99.97885519 33.9559714 -95.9375 34.4375 C-81.98451351 36.08410755 -68.73010836 37.36214423 -56.6875 28.75 C-52.76015137 25.57452667 -49.0578243 22.13680831 -45.3203125 18.7421875 C-31.71094825 6.53926211 -18.56390657 -0.18816804 0 0 Z " fill="#0068FF" transform="translate(304.75,201.5625)"/>
<path d="M0 0 C0.8971875 0.66386719 1.794375 1.32773438 2.71875 2.01171875 C3.5334375 2.60339844 4.348125 3.19507813 5.1875 3.8046875 C22.11645147 16.69377555 36.94244855 34.06294623 46.71875 53.01171875 C46.71875 54.00171875 46.71875 54.99171875 46.71875 56.01171875 C45.06875 56.67171875 43.41875 57.33171875 41.71875 58.01171875 C41.41283936 57.53976074 41.10692871 57.06780273 40.79174805 56.58154297 C21.22799991 26.5165314 -0.9912083 0.07143297 -37.28125 -8.98828125 C-38.02890625 -9.1790625 -38.7765625 -9.36984375 -39.546875 -9.56640625 C-52.91236926 -11.62851108 -67.10942843 -11.03402355 -78.59375 -3.36328125 C-83.1292046 0.36461829 -86.14229664 5.10756573 -89.28125 10.01171875 C-100.9272653 27.66227432 -100.9272653 27.66227432 -111.78125 30.32421875 C-125.39764436 32.72847174 -137.96184649 28.41365082 -150.5324707 23.52514648 C-167.40605283 16.98853359 -185.47070886 16.67920782 -202.296875 23.87353516 C-218.62254261 31.25000574 -233.09958996 41.43394157 -246.28125 53.51171875 C-264.37625342 70.09137705 -281.75504904 82.17127413 -306.95654297 81.19091797 C-315.32744758 80.54564975 -324.96201134 76.60396535 -331.28125 71.01171875 C-331.28125 69.69171875 -331.28125 68.37171875 -331.28125 67.01171875 C-329.57421875 65.84375 -329.57421875 65.84375 -327.28125 65.01171875 C-325.01953125 66.0234375 -325.01953125 66.0234375 -322.59375 67.69921875 C-312.71472939 74.0345204 -302.93196864 76.08721979 -291.34375 73.94921875 C-275.98269315 70.23336915 -264.12111968 59.6658168 -252.72265625 49.21875 C-248.38677784 45.29911591 -243.87324591 41.62606392 -239.28125 38.01171875 C-238.72840332 37.57569336 -238.17555664 37.13966797 -237.60595703 36.69042969 C-215.67306309 19.55097855 -192.49114592 9.73292493 -164.28125 12.01171875 C-158.40626041 12.98769422 -152.85994988 14.97818019 -147.28125 17.01171875 C-128.79602153 23.92700818 -128.79602153 23.92700818 -109.53515625 22.09375 C-103.11844094 19.01328182 -100.03565597 14.01834327 -96.34375 8.19921875 C-87.91114315 -4.99917107 -80.57011685 -12.60092303 -65.08984375 -16.546875 C-41.97626169 -20.17946856 -18.88751703 -13.327885 0 0 Z " fill="#0068FF" transform="translate(373.28125,242.98828125)"/>
<path d="M0 0 C0.25523437 0.84425537 0.25523437 0.84425537 0.515625 1.70556641 C8.57168376 27.98952941 21.06780292 48.59930353 46 62 C64.05508301 70.42716087 83.02581445 71.07966909 102.58921623 71.23005295 C104.72747116 71.24674106 106.86561023 71.26902102 109.00379944 71.29263306 C112.04717762 71.32608022 115.09056463 71.35804353 118.13397217 71.38870239 C143.46469976 71.64852747 168.73220165 72.0431705 194 74 C194.99 79.445 194.99 79.445 196 85 C184.25887529 85.15748155 172.57054221 84.70723971 160.84204102 84.20318604 C145.17529522 83.53111261 129.52113035 82.95347906 113.83984375 82.78515625 C112.59425186 82.77031693 111.34865997 82.7554776 110.06532288 82.7401886 C104.05450389 82.67083667 98.04464009 82.62196987 92.03344727 82.60571289 C61.98375256 82.38680134 37.87802869 75.73487449 15.625 54.7109375 C3.17302447 41.85130801 -5.97152819 25.5227517 -10 8 C-9.8359375 5.71875 -9.8359375 5.71875 -9 4 C-6.41724401 1.90272446 -3.38553466 0 0 0 Z " fill="#0068FF" transform="translate(257,16)"/>
<path d="M0 0 C1.1924231 0.43227905 1.1924231 0.43227905 2.40893555 0.87329102 C3.15312744 1.16131592 3.89731934 1.44934082 4.6640625 1.74609375 C5.33131348 1.99931396 5.99856445 2.25253418 6.68603516 2.51342773 C8.87455466 3.87279002 9.44897156 5.19019282 10.375 7.5625 C10.7890625 9.921875 10.7890625 9.921875 11 12.3125 C11.07476562 13.11171875 11.14953125 13.9109375 11.2265625 14.734375 C11.27554688 15.33765625 11.32453125 15.9409375 11.375 16.5625 C5.62464081 15.94875066 0.7216188 13.83159802 -4.5625 11.625 C-17.84169808 6.11418209 -28.77302282 3.09076079 -42.75390625 8.30859375 C-56.57804988 14.34607689 -71.18719698 25.90579546 -79.625 38.5625 C-79.625 39.5525 -79.625 40.5425 -79.625 41.5625 C-70.7800712 41.5625 -64.25207004 37.62542095 -56.62646484 33.60693359 C-37.82643204 23.79642611 -23.8651611 23.18868239 -3.625 28.5625 C-2.78727051 28.78212402 -1.94954102 29.00174805 -1.08642578 29.22802734 C1.4141076 29.90424814 3.89441868 30.62919776 6.375 31.375 C7.14658447 31.58656738 7.91816895 31.79813477 8.71313477 32.01611328 C10.875 32.70703125 10.875 32.70703125 14.375 34.5625 C16.26282892 38.97072879 16.60738294 42.79864979 16.375 47.5625 C10.54907168 45.8764078 4.7990921 44.03222197 -0.9375 42.0625 C-15.83525344 37.04838155 -28.88085314 33.65747718 -43.625 40.5625 C-46.45620925 42.02814229 -49.25968394 43.54340705 -52.0625 45.0625 C-70.95490525 55.30195879 -70.95490525 55.30195879 -81.625 53.5625 C-86.27668344 51.89491537 -89.21578764 49.91761465 -91.625 45.5625 C-92.69431533 40.29888746 -92.24842916 35.86128258 -89.4375 31.25 C-77.43397354 15.30165264 -57.33882086 -3.03386952 -36.8828125 -6.26171875 C-23.40238927 -7.31123267 -12.53840869 -4.66208157 0 0 Z " fill="#0068FF" transform="translate(452.625,148.4375)"/>
<path d="M0 0 C1.98 0 3.96 0 6 0 C6.36351562 0.96679688 6.72703125 1.93359375 7.1015625 2.9296875 C13.24049801 18.96360415 20.97551979 33.11639842 37 41 C45.82538851 44.70045913 54.90239979 46.68479735 64.24023438 48.62304688 C75.17230022 51.00692576 85.58184427 54.37458539 94 62 C94.55429688 62.50015625 95.10859375 63.0003125 95.6796875 63.515625 C103.8642945 71.90382918 104.38111268 83.27665544 105.29101562 94.34130859 C106.16877186 104.74872169 107.7995941 113.98740081 115 122 C125.99149376 131.14956767 138.02828501 133.11786532 152 132 C170.39311263 129.04732241 185.97205544 118.50474049 201.27832031 108.51269531 C230.57597855 89.39813023 260.07859548 78.98539523 295.3359375 86.1484375 C298.93841969 86.98568816 302.45601137 87.94687676 306 89 C306.33 91.31 306.66 93.62 307 96 C306.46375 95.89042969 305.9275 95.78085938 305.375 95.66796875 C303.65626188 95.32026351 301.93599806 94.98007185 300.21484375 94.64453125 C297.95124742 94.19071182 295.69372509 93.7060523 293.44140625 93.19921875 C269.90427449 88.19787454 247.47676214 91.2018949 226 102 C225.09894531 102.43828125 224.19789063 102.8765625 223.26953125 103.328125 C217.03495961 106.53723784 211.2335915 110.41315156 205.375 114.25 C191.36976681 123.41319275 178.02462509 131.87355394 162 137 C161.21882812 137.26554688 160.43765625 137.53109375 159.6328125 137.8046875 C146.36269439 141.57402066 131.12037374 139.58991429 119.00390625 133.4921875 C108.56498171 127.40163451 103.26275387 119.4924154 100 108 C99.24520263 103.64177255 98.81953393 99.27992817 98.4375 94.875 C97.3841583 83.11834743 96.37035528 73.02298393 87 65 C77.30503494 59.06824987 67.5183834 56.2856337 56.5 54 C38.53911466 50.27422614 22.58636299 44.17214194 11.5078125 28.50390625 C0 9.39378238 0 9.39378238 0 0 Z " fill="#0068FF" transform="translate(153,47)"/>
<path d="M0 0 C0 0.99 0 1.98 0 3 C-5.8259021 4.51980055 -9.2223435 3.46048781 -14.66796875 1.0078125 C-33.40217607 -7.0883776 -57.01256952 4.49880304 -74.76977539 10.60888672 C-76.00719482 11.03186035 -77.24461426 11.45483398 -78.51953125 11.890625 C-79.62401611 12.27250977 -80.72850098 12.65439453 -81.86645508 13.04785156 C-98.53051996 18.11133836 -114.9682842 14.40340033 -130.625 7.9375 C-149.06511433 0.33655747 -168.21723243 -0.63252895 -186.89160156 6.74755859 C-195.24613877 10.30840138 -202.23369971 15.00285082 -209 21 C-210.28197266 22.10214844 -210.28197266 22.10214844 -211.58984375 23.2265625 C-216.08904159 27.16420633 -220.23403316 31.20272013 -224.08984375 35.76953125 C-226.4927814 38.5754155 -228.99429984 41.28633517 -231.5 44 C-234.61208181 47.37527441 -237.69321996 50.7692351 -240.6875 54.25 C-253.72848274 69.12343933 -271.77200773 84.28277275 -292.31420898 86.21801758 C-302.79138547 86.72850646 -312.34669503 86.49548071 -322 82 C-322.97582031 81.59910156 -323.95164062 81.19820313 -324.95703125 80.78515625 C-332.62135315 77.24540919 -335.75843327 72.68675317 -339 65 C-334.42675587 66.6396321 -330.42675594 69.00032317 -326.25 71.4375 C-313.26316639 78.84513119 -301.85352375 81.7702184 -287 78 C-261.13776798 69.78048743 -243.12796281 47.66475821 -226.08984375 27.76953125 C-211.10066421 10.52764265 -192.0105727 -2.24453226 -169 -5 C-149.16960071 -6.24164715 -133.01129105 -0.8441034 -114.64038086 6.10791016 C-94.36902029 12.9568747 -73.3555123 3.33706617 -54.34570312 -3.28320312 C-35.87565113 -9.63346707 -17.03673905 -10.88458328 0 0 Z " fill="#0068FF" transform="translate(366,321)"/>
<path d="M0 0 C-2.92879166 2.35398208 -5.82152047 3.9718777 -9.25 5.5 C-10.22066406 5.93441406 -11.19132813 6.36882812 -12.19140625 6.81640625 C-14.50815602 7.79272778 -16.80610181 8.64055684 -19.1875 9.4375 C-23.77512737 11.10910511 -27.21041125 13.98724316 -31 17 C-40.70081083 24.43971959 -51.33433435 32.50034323 -64.10546875 32.0546875 C-65.25466797 32.03019531 -66.40386719 32.00570312 -67.58789062 31.98046875 C-69.96835916 31.91072089 -72.34860195 31.83273153 -74.72851562 31.74609375 C-83.47143911 31.58030491 -91.27325963 32.18508543 -98.29956055 37.85595703 C-100.54686846 40.03721936 -102.65299423 42.2992343 -104.75 44.625 C-115.39151309 55.79129088 -126.08602352 62.93282481 -140.12353516 69.15673828 C-145.01353539 71.3709705 -148.86155798 73.8814988 -152.65234375 77.75 C-154 79 -154 79 -156 79 C-157.65 75.7 -159.3 72.4 -161 69 C-156.55752977 64.55752977 -151.97539232 61.82738426 -146.375 59.125 C-132.6859979 52.4893947 -121.45236318 44.7657788 -110.89819336 33.70214844 C-103.35204012 25.86479564 -94.99796311 20.64392203 -83.92578125 19.8515625 C-80.63952856 19.79256335 -77.47939162 19.93603623 -74.21875 20.37109375 C-59.99723742 22.18620786 -49.89440949 16.39777398 -39 8 C-37.41463211 6.73170569 -35.83107409 5.46114302 -34.25 4.1875 C-23.57262937 -4.14511229 -12.53625572 -5.31841152 0 0 Z " fill="#0068FF" transform="translate(228,386)"/>
<path d="M0 0 C0.36351562 1.18335938 0.72703125 2.36671875 1.1015625 3.5859375 C7.3602135 23.47552197 16.99953946 36.6899492 34.9128418 47.62158203 C44.63534318 53.57323251 53.54975416 59.17359914 56.47070312 70.88769531 C56.97166846 73.08930615 57.45712156 75.29380876 57.9375 77.5 C60.09093233 87.3041164 63.45930876 94.23760591 72 100 C84.84824656 107.15360248 101.09674754 108.03286546 115.3125 104.9375 C125.87358568 101.75310626 134.91977523 96.17178322 143.9375 90 C171.92978904 70.90777799 203.79626883 67.66118642 237 68 C237.33 69.98 237.66 71.96 238 74 C236.64974731 74.06731323 236.64974731 74.06731323 235.2722168 74.13598633 C199.91138697 75.94930431 171.96135455 80.39433482 141.68359375 99.671875 C124.08348167 110.8542916 105.49961715 116.1617632 84.63671875 112.31640625 C73.2989111 109.52538312 62.21421658 104.34967571 55.82421875 94.1171875 C53.43666478 89.26833271 52.28426013 84.17447377 51.0625 78.9375 C48.44688292 67.91997341 44.39876604 62.2701357 35 56 C33.06146668 54.80629357 31.11196615 53.63181593 29.16162109 52.45751953 C11.6403843 41.85674333 0.6336539 27.6926384 -5 8 C-5.35781075 6.33841631 -5.70088986 4.67314734 -6 3 C-2.25 0 -2.25 0 0 0 Z " fill="#0068FF" transform="translate(217,39)"/>
<path d="M0 0 C20.23993246 3.60523797 38.58241767 11.08657205 54 25 C54.804375 25.721875 55.60875 26.44375 56.4375 27.1875 C63.53248827 33.89897539 71.26242677 42.91929694 72.3125 53 C71.95309351 56.4503023 71.10954908 58.26539934 69 61 C60.93500357 63.68833214 53.34035634 60.72784026 45.4375 58.5625 C43.04098677 57.91565917 40.64386996 57.27104952 38.24609375 56.62890625 C37.19091553 56.34088135 36.1357373 56.05285645 35.04858398 55.75610352 C20.82341281 52.22800588 6.0470937 53.28108493 -8 57 C-9.66419056 57.34548325 -11.33010372 57.68324251 -13 58 C-12.79905835 56.03856959 -12.56328747 54.08068209 -12.3125 52.125 C-12.18488281 51.03445313 -12.05726563 49.94390625 -11.92578125 48.8203125 C-11 46 -11 46 -8.734375 44.6875 C-7.83203125 44.460625 -6.9296875 44.23375 -6 44 C-5.20464844 43.79117188 -4.40929687 43.58234375 -3.58984375 43.3671875 C17.81576633 39.39501243 38.63413912 43.01317181 59 50 C51.62306573 37.3938465 41.74928547 28.87106114 29 22 C28.15308594 21.54109375 27.30617188 21.0821875 26.43359375 20.609375 C17.4534065 16.16846863 7.60491184 13.72550841 -2 11 C-1.85892253 9.54119891 -1.71197585 8.08296449 -1.5625 6.625 C-1.48128906 5.81289063 -1.40007812 5.00078125 -1.31640625 4.1640625 C-1 2 -1 2 0 0 Z " fill="#0068FF" transform="translate(338,818)"/>
<path d="M0 0 C23.23065689 7.0521637 46.02103511 19.32313596 58.08837891 41.20361328 C63.08959664 51.05871775 64.61054619 61.33690216 61.9375 72.0625 C58.85802855 81.11384365 53.10881958 88.05776325 45 93 C44.27296875 93.45117188 43.5459375 93.90234375 42.796875 94.3671875 C30.29270497 101.36455417 15.96617294 101.766077 2 101 C1.01 100.67 0.02 100.34 -1 100 C-1 96.37 -1 92.74 -1 89 C0.37671875 89.03480469 1.7534375 89.06960937 3.171875 89.10546875 C17.84435818 89.36678694 30.12756311 88.42856355 42.6875 80.25 C47.96353795 75.11655767 51.05019522 69.32345029 51.3125 61.9375 C51.10366854 50.33786184 44.62331322 40.55930803 36.59765625 32.625 C25.58110498 23.08284431 12.64855714 16.80801445 -1 12 C-0.67 8.04 -0.34 4.08 0 0 Z " fill="#0068FF" transform="translate(94,143)"/>
<path d="M0 0 C0.99 0.99 0.99 0.99 2 2 C-0.3019601 3.98444836 -2.19091019 4.97055306 -5.25390625 5.08203125 C-10.57104102 4.66204892 -15.62219669 3.63614463 -20.8125 2.4375 C-38.19557682 -1.08134146 -53.9090171 0.84396985 -70.6484375 6.33569336 C-75.40023053 7.67805516 -79.88504413 8.11551105 -84.80859375 7.9921875 C-85.88560547 7.97542969 -86.96261719 7.95867187 -88.07226562 7.94140625 C-90.31201847 7.89720915 -92.55163027 7.84515143 -94.79101562 7.78515625 C-102.0125674 7.69019263 -107.08553916 8.00202007 -112.96875 12.5078125 C-116.00577759 15.71528552 -118.81584319 18.98902702 -121.5 22.5 C-132.65625323 37.03021944 -147.42152252 44.26340972 -165.515625 46.6875 C-175.54208782 47.58673433 -188.57308711 48.74787736 -198 45 C-199.85546875 41.9140625 -199.85546875 41.9140625 -201 39 C-200.030625 39.0721875 -199.06125 39.144375 -198.0625 39.21875 C-176.22621903 40.77042727 -152.94599614 41.8111087 -135.0859375 26.94921875 C-131.43816749 23.54053479 -128.20788793 19.81922722 -125 16 C-113.44490137 2.36400437 -113.44490137 2.36400437 -105 1 C-100.91151055 0.8845394 -96.83687852 1.05478209 -92.75 1.1875 C-81.76405658 1.38359484 -72.39663442 -0.01726564 -61.98046875 -3.36816406 C-42.17368645 -9.68719175 -19.45285159 -6.26154629 0 0 Z " fill="#0068FF" transform="translate(245,376)"/>
<path d="M0 0 C8.12226054 1.81443402 16.14290535 3.8032015 23.9375 6.75 C25.08089844 7.17796875 26.22429687 7.6059375 27.40234375 8.046875 C36.81754778 12.61234569 41.76108643 20.14917943 46.125 29.3125 C47.15585043 31.36999727 48.18966631 33.42601167 49.2265625 35.48046875 C49.70899414 36.44645996 50.19142578 37.41245117 50.68847656 38.40771484 C54.94013377 46.81130684 60.10401569 53.39633954 66.57128906 60.13793945 C71.17849977 65.00183761 74.67984175 70.16634166 78 76 C74.535 79.96 74.535 79.96 71 84 C67.28023356 80.50567395 64.22935087 76.76616359 61.1484375 72.703125 C59.53157822 70.66882205 57.8946863 68.72995777 56.1640625 66.796875 C49.71182073 59.57538285 44.5123649 52.56838046 40.01367188 43.94042969 C38.87714851 41.76483053 37.71311642 39.60511929 36.546875 37.4453125 C30.22696756 25.68090269 30.22696756 25.68090269 29 22 C26.16878228 20.59241917 23.23933201 19.76007887 20.22265625 18.80859375 C6.84846539 14.4966526 6.84846539 14.4966526 2.9453125 7.24609375 C1.93342678 4.84181983 0.94814028 2.43014334 0 0 Z " fill="#0068FF" transform="translate(361,939)"/>
<path d="M0 0 C5.29028608 -0.95415981 9.39638068 -0.92378071 14.1328125 1.8046875 C16.97082176 3.89241341 19.63836559 6.17190677 22.28222656 8.49853516 C24.02206586 10.01928724 25.79645745 11.48734227 27.5859375 12.94921875 C57.05769287 37.23321147 73.55533037 71.31665479 86.125 106.6875 C86.81752767 108.61318347 87.51023794 110.53880128 88.203125 112.46435547 C102 151.00920721 102 151.00920721 102 157 C101.34 157 100.68 157 100 157 C89.86857141 141.81737206 84.58048813 123.99018886 78.4609375 106.92578125 C69.20689219 81.25161559 58.39302385 55.57524702 40 35 C39.13632812 34.00484375 38.27265625 33.0096875 37.3828125 31.984375 C27.34149121 20.56701415 14.07518559 8.3286461 0 2 C0 1.34 0 0.68 0 0 Z " fill="#0068FF" transform="translate(357,802)"/>
<path d="M0 0 C4.40488349 1.6612091 8.62769799 3.58922727 12.859375 5.6484375 C31.16508972 14.51319039 50.74185142 14.1231129 70.6484375 14.6484375 C72.21354869 14.69180453 73.77865293 14.73542327 75.34375 14.77929688 C79.1119058 14.88439513 82.88013756 14.98614686 86.6484375 15.0859375 C86.6484375 15.7459375 86.6484375 16.4059375 86.6484375 17.0859375 C79.87104904 20.78222009 74.36454794 21.63890917 66.7109375 21.3984375 C65.20466797 21.37197144 65.20466797 21.37197144 63.66796875 21.3449707 C60.66023885 21.28270726 57.65504137 21.18823394 54.6484375 21.0859375 C53.79878418 21.06370117 52.94913086 21.04146484 52.07373047 21.01855469 C35.50625624 20.5664998 21.28781265 17.52551035 6.1796875 10.46484375 C-1.10967481 7.16086105 -7.30688252 5.11877293 -15.3515625 5.0859375 C-10.88612789 14.01680672 -2.74955544 18.13595544 6.37255859 21.37451172 C13.69647202 23.66392212 21.30571974 25.0055492 28.8203125 26.51123047 C33.04837288 27.37042023 37.25645858 28.30616484 41.4609375 29.2734375 C42.16581299 29.42828613 42.87068848 29.58313477 43.59692383 29.74267578 C48.41650255 30.85400255 48.41650255 30.85400255 50.6484375 33.0859375 C41.23841728 39.11800175 27.81399646 33.67778982 17.62890625 31.46875 C3.40847133 28.25602645 -10.64254546 23.90519172 -20.1640625 12.140625 C-22.2628283 8.50920786 -22.11696687 6.19128822 -21.3515625 2.0859375 C-16.05945971 -3.39516896 -6.7213919 -1.83310688 0 0 Z " fill="#0068FF" transform="translate(218.3515625,334.9140625)"/>
<path d="M0 0 C0.67546875 0.61488281 1.3509375 1.22976563 2.046875 1.86328125 C2.72234375 2.44722656 3.3978125 3.03117188 4.09375 3.6328125 C14.84737532 13.53198309 20.4292608 27.55704949 26.20117188 40.66601562 C31.91812034 53.36336515 38.57318142 64.23819443 50.859375 71.23828125 C55.71535627 74.15852204 55.71535627 74.15852204 57.1953125 77.3046875 C57.67456293 79.52382536 57.98005318 81.59647952 58.046875 83.86328125 C41.07660348 78.04672868 28.97697852 62.83441709 21.31103516 47.35913086 C19.14758083 42.64492906 17.05483457 37.90240806 14.98046875 33.1484375 C8.13260177 17.88795752 -1.44655598 4.11470067 -17.53515625 -2.140625 C-31.13803666 -6.46596485 -44.9027645 -5.42474383 -58.88574219 -3.84838867 C-63.61317561 -3.32275424 -68.19615107 -3.03414249 -72.953125 -3.13671875 C-73.613125 -5.11671875 -74.273125 -7.09671875 -74.953125 -9.13671875 C-71.06207518 -9.57305479 -67.1700894 -9.99977431 -63.27709961 -10.41845703 C-61.31897059 -10.63093031 -59.36161811 -10.85052226 -57.40429688 -11.0703125 C-37.61230624 -13.18548707 -16.04498069 -13.67336858 0 0 Z " fill="#0068FF" transform="translate(406.953125,897.13671875)"/>
<path d="M0 0 C0.70519775 0.00942627 1.41039551 0.01885254 2.13696289 0.02856445 C13.22353107 0.3471367 24.20949904 4.55180987 32.25 12.375 C39.74053235 22.2027317 43.44077585 31.91263353 42.25 44.375 C40.7308608 50.3885873 38.70823666 55.91676334 34.25 60.375 C31.97885524 61.51057238 30.52706381 61.60584318 28 61.6875 C26.87851563 61.74357422 26.87851563 61.74357422 25.734375 61.80078125 C19.68698746 60.76435791 15.22894123 55.7103991 11.0625 51.5 C10.50079102 50.93337646 9.93908203 50.36675293 9.36035156 49.78295898 C-1.03017338 39.10673856 -15.96809287 23.7418687 -16.75 8.375 C-15.43405894 4.89162661 -14.2836614 3.70152171 -11.11328125 1.76171875 C-7.30322725 0.19079056 -4.05203249 -0.08384184 0 0 Z M-10.75 9.375 C-8.98641564 23.01172977 6.2164205 36.67811572 15.25 46.375 C15.96671875 47.14585937 16.6834375 47.91671875 17.421875 48.7109375 C18.10765625 49.42507812 18.7934375 50.13921875 19.5 50.875 C20.10328125 51.5040625 20.7065625 52.133125 21.328125 52.78125 C23.51010242 54.59069469 25.58345189 55.45550065 28.25 56.375 C33.24910667 52.05144828 35.58149016 47.81814466 36.5703125 41.24609375 C37.03951749 32.50324077 33.54932018 23.88634949 28.07421875 17.15625 C19.13619153 8.42875447 8.43882953 6.05611439 -3.61328125 5.9765625 C-6.9496835 6.40036453 -8.32521381 7.11186622 -10.75 9.375 Z " fill="#0068FF" transform="translate(184.75,132.625)"/>
<path d="M0 0 C49.96140987 1.28506682 49.96140987 1.28506682 67.3125 19.1875 C74.0918163 27.27894203 76.25868776 36.61081176 78.26953125 46.75390625 C79.27349601 51.2153753 80.85429119 54.98027928 83 59 C83.68835938 60.34771484 83.68835938 60.34771484 84.390625 61.72265625 C89.80057465 71.68904408 97.10039437 80.49222815 105.43359375 88.1640625 C106.70396484 89.56785156 106.70396484 89.56785156 108 91 C107.66040039 93.17724609 107.66040039 93.17724609 107 95 C105.3125 95.77734375 105.3125 95.77734375 103 96 C85.54735355 83.16886026 74.32575518 62.08141842 69.83544922 41.48901367 C67.19792025 29.77868503 61.91076531 22.05792834 51.7578125 15.56640625 C42.83277419 10.63568836 33.21934101 9.25631635 23.203125 8.36328125 C21.99003662 8.25000488 20.77694824 8.13672852 19.52709961 8.02001953 C17.07182826 7.80023119 14.61404837 7.6067127 12.15454102 7.44091797 C8.98574694 7.16131189 6.05981856 6.87247839 3 6 C0.69921875 2.89453125 0.69921875 2.89453125 0 0 Z " fill="#0068FF" transform="translate(343,908)"/>
<path d="M0 0 C0.43570312 0.37511719 0.87140625 0.75023438 1.3203125 1.13671875 C1.91585938 1.64847656 2.51140625 2.16023437 3.125 2.6875 C3.76566406 3.24050781 4.40632813 3.79351562 5.06640625 4.36328125 C6.69659811 5.74318103 8.37474721 7.06613049 10.0625 8.375 C17.48859362 15.01108366 21.02283754 22.59097763 23.921875 31.98828125 C26.95516112 41.77187215 30.51002102 49.32808692 39.55078125 54.72265625 C48.09847487 59.18054431 56.08699424 60.60818216 65.62646484 61.22949219 C66.42133301 61.28911133 67.21620117 61.34873047 68.03515625 61.41015625 C69.10842163 61.47408569 69.10842163 61.47408569 70.20336914 61.53930664 C72 62 72 62 74 65 C74 65.99 74 66.98 74 68 C57.67812737 68.61721367 42.4730088 66.56038754 29.125 56.25 C22.56603397 50.02454072 19.65832177 42.3708858 17 33.9375 C13.17313646 21.88084886 7.65208852 15.21121919 -2 7 C-2.66 6.34 -3.32 5.68 -4 5 C-4 4.01 -4 3.02 -4 2 C-2.68 1.34 -1.36 0.68 0 0 Z " fill="#0068FF" transform="translate(283,0)"/>
<path d="M0 0 C3.93641212 1.31213737 4.51571422 2.91454397 6.625 6.4375 C7.23601562 7.42621094 7.84703125 8.41492188 8.4765625 9.43359375 C12.0092304 17.70365989 11.23064739 27.448804 11.5 36.3125 C11.77388339 45.23399785 12.24263816 54.10559397 13 63 C9.37 63 5.74 63 2 63 C-0.92754991 54.21735026 -0.24765127 44.09514497 -0.50268555 34.89501953 C-0.56202303 32.76710486 -0.6272828 30.63943367 -0.69335938 28.51171875 C-0.90305784 21.51395458 -1.05014375 14.51653319 -1.08984375 7.515625 C-1.09749756 6.28618164 -1.10515137 5.05673828 -1.11303711 3.79003906 C-1 1 -1 1 0 0 Z " fill="#0068FF" transform="translate(63,835)"/>
<path d="M0 0 C10.77199608 2.45349152 20.72798623 7.6247599 27 17 C30.11975007 22.65523599 30.504839 27.99582602 28.73046875 34.140625 C27.35230941 37.64866695 25.37729538 40.15888959 22.16503906 42.12060547 C19.68747713 43.12694039 17.90122933 43.22950294 15.234375 43.1953125 C14.34492187 43.18886719 13.45546875 43.18242187 12.5390625 43.17578125 C11.61867188 43.15902344 10.69828125 43.14226562 9.75 43.125 C8.81414062 43.11597656 7.87828125 43.10695312 6.9140625 43.09765625 C4.60911343 43.07413636 2.3046884 43.04126853 0 43 C0 41.02 0 39.04 0 37 C0.85722656 37.02320313 1.71445313 37.04640625 2.59765625 37.0703125 C11.55458763 37.41014617 11.55458763 37.41014617 20 35 C22.31187681 31.82116939 23.01932767 29.92772808 22.9375 26 C20.18873803 17.2039617 13.32357789 12.91855315 5.5703125 8.66796875 C3.73152641 7.74203198 1.86825667 6.86493364 0 6 C0 4.02 0 2.04 0 0 Z " fill="#0068FF" transform="translate(93,183)"/>
<path d="M0 0 C3 1 3 1 4.24609375 2.57421875 C5.34041966 6.09533994 4.63439822 9.25149639 4.0625 12.8125 C2.51278235 24.20912844 3.31715178 34.60576791 6.0625 45.75 C7.6948367 52.3826318 8.37954529 58.66648535 8.375 65.5 C8.37636963 66.31952148 8.37773926 67.13904297 8.37915039 67.98339844 C8.27110179 73.72889821 8.27110179 73.72889821 6 76 C2.52090879 70.67242195 1.35809017 66.67100496 0.9375 60.375 C0.48193476 55.03799393 -0.11887844 50.10034462 -1.625 44.9375 C-5.12312691 30.92714479 -4.58058859 13.71450038 0 0 Z " fill="#0068FF" transform="translate(45,822)"/>
<path d="M0 0 C3.63 0 7.26 0 11 0 C10.36979965 6.18277641 8.61524082 11.75296716 6.625 17.625 C6.32078125 18.553125 6.0165625 19.48125 5.703125 20.4375 C2.68215659 29.44876473 2.68215659 29.44876473 0 33 C-0.66 33 -1.32 33 -2 33 C-2.87471834 31.63798182 -3.72397503 30.25959437 -4.5625 28.875 C-5.27599609 27.72644531 -5.27599609 27.72644531 -6.00390625 26.5546875 C-8.26615759 20.75267819 -4.86702075 14.23896524 -2.9375 8.625 C-2.51500977 7.37783203 -2.51500977 7.37783203 -2.08398438 6.10546875 C-1.39342899 4.06891559 -0.69727821 2.03426119 0 0 Z " fill="#0068FF" transform="translate(7,786)"/>
<path d="M0 0 C2.0245738 1.93254772 3.42105792 3.63158688 5 6 C4.58443273 20.25151284 -3.27447527 31.49548479 -12 42 C-13.9375 41.1875 -13.9375 41.1875 -16 40 C-16.495 38.515 -16.495 38.515 -17 37 C-15.3046875 34.5390625 -15.3046875 34.5390625 -12.875 31.625 C-5.46682744 22.28239167 -2.55157748 11.51321546 0 0 Z " fill="#0068FF" transform="translate(32,798)"/>
<path d="M0 0 C2.89501928 -0.60312902 4.22928072 -0.84968724 7 0 C9.21478969 2.23305599 10.96643962 4.64905445 12.81640625 7.19140625 C15.7303294 10.93936823 19.11969569 13.89948258 22.703125 16.9921875 C23.46109375 17.65476562 24.2190625 18.31734375 25 19 C25.7321875 19.63679687 26.464375 20.27359375 27.21875 20.9296875 C29.33563717 23.39010461 29.74781873 25.06951862 30.25 28.25 C30.39953125 29.14203125 30.5490625 30.0340625 30.703125 30.953125 C30.85007812 31.96632813 30.85007812 31.96632813 31 33 C25.98909789 28.78628686 21.14677467 24.41644928 16.35253906 19.9597168 C14.08449071 17.86203303 11.80788651 15.85013435 9.37109375 13.94921875 C6.94295545 11.95310506 5.112618 9.91624671 3.1875 7.4375 C2.58292969 6.67308594 1.97835938 5.90867187 1.35546875 5.12109375 C0 3 0 3 0 0 Z " fill="#0068FF" transform="translate(391,802)"/>
</svg>
